/* XPM */
static char *result[] = {
/* columns rows colors chars-per-pixel */
"56 56 229 2 ",
"   c #020000",
".  c #0B0301",
"X  c #070800",
"o  c #130402",
"O  c #1D0402",
"+  c #120C02",
"@  c #1A0A05",
"#  c #1A1905",
"$  c #2C0A04",
"%  c #260603",
"&  c #3C0906",
"*  c #380906",
"=  c #2C1309",
"-  c #39140A",
";  c #4A0A07",
":  c #460B07",
">  c #560C09",
",  c #4C120B",
"<  c #44190A",
"1  c #5C120B",
"2  c #551909",
"3  c #59150D",
"4  c #5D1611",
"5  c #63130D",
"6  c #6D150E",
"7  c #6B1C0E",
"8  c #73150E",
"9  c #751B0F",
"0  c #691817",
"q  c #741A10",
"w  c #7B1D12",
"e  c #791611",
"r  c #600F09",
"t  c #48250F",
"y  c #452610",
"u  c #5B2310",
"i  c #592A12",
"p  c #5A3215",
"a  c #5A220F",
"s  c #6B2A15",
"d  c #682714",
"f  c #732414",
"g  c #762619",
"h  c #6C3518",
"j  c #7D331B",
"k  c #773519",
"l  c #7C451F",
"z  c #7C5123",
"x  c #821B13",
"c  c #8B1C14",
"v  c #841F1E",
"b  c #941E16",
"n  c #832916",
"m  c #8C2A18",
"M  c #892315",
"N  c #942316",
"B  c #9A2218",
"V  c #9A281A",
"C  c #84341B",
"Z  c #8C341C",
"A  c #853A1D",
"S  c #9D351E",
"D  c #973B1E",
"F  c #A4241A",
"G  c #A52C1D",
"H  c #A8241B",
"J  c #B3281E",
"K  c #AB351F",
"L  c #A3331E",
"P  c #9B3C20",
"I  c #933D23",
"U  c #8E2F23",
"Y  c #A33D22",
"T  c #AC3D21",
"R  c #B43522",
"E  c #B73A24",
"W  c #B72C20",
"Q  c #C33D26",
"!  c #CA3C29",
"~  c #C53A27",
"^  c #94471F",
"/  c #8D4322",
"(  c #8B4B23",
")  c #854922",
"_  c #934422",
"`  c #924C24",
"'  c #9D4923",
"]  c #965526",
"[  c #AC4524",
"{  c #AE4C29",
"}  c #A64926",
"|  c #B44226",
" . c #BC4326",
".. c #BD4B2A",
"X. c #B84928",
"o. c #A9562B",
"O. c #BD532C",
"+. c #BE5C2D",
"@. c #B4582C",
"#. c #96642B",
"$. c #956F2D",
"%. c #A8682C",
"&. c #BE682F",
"*. c #AA6830",
"=. c #B37032",
"-. c #C4462A",
";. c #CB432A",
":. c #C44E2B",
">. c #CD4C2C",
",. c #C04126",
"<. c #D64F2E",
"1. c #CB532E",
"2. c #C85A2E",
"3. c #D3522E",
"4. c #DB532F",
"5. c #CA5C31",
"6. c #CA5930",
"7. c #D35B31",
"8. c #DB5B33",
"9. c #D85431",
"0. c #E85736",
"q. c #CB6232",
"w. c #C46832",
"e. c #D46434",
"r. c #DD6B39",
"t. c #D86C38",
"y. c #C77835",
"u. c #D6763A",
"i. c #C16A2E",
"p. c #E36135",
"a. c #E56B39",
"s. c #E36737",
"d. c #E67B3E",
"f. c #E7753D",
"g. c #D77E40",
"h. c #E87B40",
"j. c #B18D36",
"k. c #C78839",
"l. c #D48C3A",
"z. c #D9863B",
"x. c #C8993C",
"c. c #D5923D",
"v. c #DB953D",
"b. c #DB9F3E",
"n. c #E4873E",
"m. c #D4A53E",
"M. c #C4A13F",
"N. c #D78B41",
"B. c #D39C41",
"V. c #DC9D41",
"C. c #D89341",
"Z. c #CC9F40",
"A. c #EB8442",
"S. c #E18D44",
"D. c #E98A44",
"F. c #EB9443",
"G. c #EC9B45",
"H. c #E69843",
"J. c #F09343",
"K. c #D4A443",
"L. c #DDAB43",
"P. c #DEA541",
"I. c #CCB548",
"U. c #DCB445",
"Y. c #DDBC42",
"T. c #D4BD4C",
"R. c #DDBC4B",
"E. c #D7B845",
"W. c #C4A241",
"Q. c #E6A845",
"!. c #F1A948",
"~. c #E4B549",
"^. c #ECB44A",
"/. c #E4BB49",
"(. c #E1BE47",
"). c #F3B54D",
"_. c #F2BB4A",
"`. c #DAC648",
"'. c #DECB51",
"]. c #DAC75A",
"[. c #E3C44B",
"{. c #EBC34B",
"}. c #E3CA4C",
"|. c #E8C94B",
" X c #F2C44F",
".X c #F4CE4F",
"XX c #ECD34C",
"oX c #F3D54D",
"OX c #E2CD5B",
"+X c #E4CA51",
"@X c #F4C950",
"#X c #EDD454",
"$X c #E9D658",
"%X c #F4D353",
"&X c #F6DC52",
"*X c #F3DB5C",
"=X c #F9DD5B",
"-X c #F8DA53",
";X c #F8E159",
":X c #DBC965",
">X c #EBD769",
",X c #F3DE6C",
"<X c #F5DC67",
"1X c #EEDC7C",
"2X c #EDDB76",
"3X c #F3DF70",
"4X c #E4CF60",
"5X c #F9E264",
"6X c #FBE469",
"7X c #F8E379",
"8X c #E8D786",
"9X c #F1DE83",
"0X c #F9E481",
"qX c #F7E68A",
"wX c #EFE19C",
"eX c #FBEB9C",
"rX c #F7E795",
"tX c #EEE08E",
"yX c #EEE2A1",
"uX c #EEE4AA",
"iX c #FBEDA4",
"pX c #FBEEAB",
"aX c #F3E7A4",
"sX c #FCF0AC",
"dX c #FCF0A5",
"fX c #F9EDB1",
"gX c #FCF1B4",
"hX c #FCF2BA",
"jX c None",
/* pixels */
"jXjXjXjXjXjXjXjXjXjXjXjXjXjXjXjXjXjXjXjXjXjXjXjXjXjXjXjXjXjXjXjXjXjXjXjXjXjXjXjXjXjXjXjXjXjXjXjXjXjXjXjXjXjXjXjX",
"jXjXjXjXjXjXjXjXjXjXjXjXjXjXjXjXjXjXjXjXjXjXjXjXjXjXjXjXjXjXjXjXjXjXjXjXjXjXjXjXjXjXjXjXjXjXjXjXjXjXjXjXjXjXjXjX",
"jXjXjXjXjXjXjXjXjXjXjXjXjXjXjXjXjXjXjXjXjXjXjXjXjXjXjXjXjXjXjXjXjXjXjXjXjXjXjXjXjXjXjXjXjXjXjXjXjXjXjXjXjXjXjXjX",
"jXjXjXjXjXjXjXjXjXjXjXjXjXjXjXjXjXjXjXjXjXjXjXjXjXjXjXjXjXjXjXjXjXjXjXjXjXjXjXjXjXjXjXjXjXjXjXjXjXjXjXjXjXjXjXjX",
"jXjXjXjXjXjXjXjXjXjXjXjXjXjXjXjXjXjXjXjXjXjXjXjXjXjXjXjXjXjXjXjXjXjXjXjXjXjXjXjXjXjXjXjXjXjXjXjXjXjXjXjXjXjXjXjX",
"jXjXjXjXjXjXjXjXjXjXjXjXjXjXjXjXjXjXjXjXjXjXjXjXjXjXjXjXjXjXjXjXjXjXjXjXjXjXjXjXjXjXjXjXjXjXjXjXjXjXjXjXjXjXjXjX",
"jXjXjXjXjXjXjXjXjXjXjXjXjXjXjXjXjXjXjXjXjXjXjXjXjXjXjXjXjXjXjXjXjXjXjXjXjXjXjXjXjXjXjXjXjXjXjXjXjXjXjXjXjXjXjXjX",
"jXjXjXjXjXjXjXjXjXjXjXjXjXjXjXjXjXjXjXjXjXjXjXjXjXjXjXjXjXjXjXjXjXjXjXjXjXjXjXjXjXjXjXjXjXjXjXjXjXjXjXjXjXjXjXjX",
"jXjXjXjXjXjXjXjXjXjXjXjXjXjXjXjXjXjXjXjXjXjXjXjXjXjXjXjXjXjXjXjXjXjXjXjXjXjXjXjXjXjXjXjXjXjXjXjXjXjXjXjXjXjXjXjX",
"jXjXjXjXjXjXjXjXjXjXjXjXjXjXjXjXjXjXjXjXjXjXjXjXjXjXjXjXjXjXjXjXjXjXjXjXjXjXjXjXjXjXjXjXjXjXjXjXjXjXjXjXjXjXjXjX",
"jXjXjXjXjXjXjXjXjXjXjXjXjXjXjXjXjXjXjXjXjXjXjXjXjXjXjXjXjXjXjXjXjXjXjXjXjXjXjXjXjXjXjXjXjXjXjXjXjXjXjXjXjXjXjXjX",
"jXjXjXjXjXjXjXjXjXjXjXjXjXjXjXjXjXjXjXjXjXjXjXjXjXjXjXjXjXjXjXjXjXjXjXjXjXjXjXjXjXjXjXjXjXjXjXjXjXjXjXjXjXjXjXjX",
"jXjXjXjXjXjXjXjXjXjXjXjXjXjXjXjXjXjXjXjXjXjXjXjXjXjXjXjXjXjXjXjXjXjXjXjXjXjXjXjXjXjXjXjXjXjXjXjXjXjXjXjXjXjXjXjX",
"jXjXjXjXjXjXjXjXjXjXjXjXjXjXjXjXjXjXjXjXjXjXjXjXjXjXjXjXjX  o jXl jXjXp jXjXjXjXjXjXjXjXjXjXjXjXjXjXjXjXjXjXjXjX",
"jXjXjXjXjXjXjXjXjXjXjXjXjXjXjXjXjXjXjXjXjXjXjXjXjX< jX< f - s ' / @.o.) *.` t ` jXjXjXjXjXjXjXjXjXjXjXjXjXjXjXjX",
"jXjXjXjXjXjXjXjXjXjXjXjXjXjXjXjXjXjXjXjXjXjXjXjX2 3 7 m m P |  .>.r.h.y.y.y.k.*.*.jXjXjXjXjXjXjXjXjXjXjXjXjXjXjX",
"jXjXjXjXjXjXjXjXjXjXjXjXjXjXjX% jXjX$ jX& O , 6 8 9 H W X.>.3.7.0.s.C.B.N.~. XK.x.W.z ( l jXjXjXjXjXjXjXjXjXjXjX",
"jXjXjXjXjXjXjXjXjXjXjXjXjXjXjX& 0 x , c 9 4 Z m c J J 7.n.s.f.n.f.k.Z.K.'.#XoXoX`.U.(.*.#.$.jXjXjXjXjXjXjXjXjXjX",
"jXjXjXjXjXjXjXjXjXjXjXjXjXjXjXjXb b F H F S T [ ,.~ :.z.b.H.n.G.B.x.M.I.XX'.'.&XXX[.@X{.j.$.( jXjXjXjXjXjXjXjXjX",
"jXjXjXjXjXjXjXjXjXjXjXjXjXjXjXjXJ F J H L Y [ +.2.X.i.y.v.Q.P.l.j.x.I.].].I.M.'.'.'.%X-X+X*.U v jXjXjXjXjXjXjXjX",
"jXjXjXjXjXjXjXjXjXjXjX$ jXjXjXjX8 e B M n L / } | G [ &.2.l.i.i.k.I.].:X8X8X].9X>X>X5X=X.XQ.} g 0 jXjXjXjXjXjXjX",
"jXjXjXjXjXjXjXjXjXjXjX% o   jX: > q m n M } I P G F R  .:.-.O.2.x.T.:X9XwXuXuXrXrX0X6X;X-X_.v._ g jXjXjXjXjXjXjX",
"jXjXjXjXjXjXjXjXjXjXjXjX  o 4 ; 5 m D S T | :.T K E -.1.q.;.1.m.Y.[.9XiXaXhXhXsXdXiX0X5X;X XG.l.jXjXjXjXjXjXjXjX",
"jXjXjXjXjXjXjXjXjXjXjXjXy C ^ g c B L Q Q >.p.8.,.;.3.z.l.u.).%X|.%X<XeXfXhXgXsXsXeXrX7X6X=X~.=.#.jXjXjXjXjXjXjX",
"jXjXjXjXjXjXo O jXjXjXjXw.2.{ | K b c R  .:.e.7.:.3.D.v.H.^.@X-X&X=X7XdXgXgXpXpXiXeXeXeX0X5X(.j.$.*.jXjXjXjXjXjX",
"jXjXjXjXjXX o O o jXi h &.o.( { Z , 8 , A } ^ } :.2.D.G.!.). X-X;X<XeXsXgXsXpXpXeXeXsXsXeXOXR.L.k.=.%.jXjXjXjXjX",
"jXjXjXjXjX  . o   @ a i s h p k @ o * o @ h y p ^ :.5.h.d.!.@X&X%X2X9XpXhXhXsXpXsXgXhXgX2XOXR.V.S.y./ j jXjXjXjX",
"jXjXjXjXjXjXjXjXO r g d f w d 0 & $ * $ = y y + = I E ! d.F._..X`.4XrXiXhXhXhXgXgXhXhXeXqXOXm.v.S.a.O.jXjXjXjXjX",
"jXjXjXjXjXjXjXjXB b B B c c b e c e r Z / p A = + D R ;.n.J.!.XX`.`.1XiXdXhXhXaXpXhXpXeX0XT.x.c.f.s.{ jXjXjXjXjX",
"jXjX    jXjXjXx F b B H b B H c b H S q.w.+.} ' ] %.i.v.J.!.%X%XR.'.OX1XeXrXrXwXyXfXgXeX].`.m.A.h.{ s u jXjXjXjX",
"jXjXjXjXjXjX% * x x x c > 1 x q q V } @.s.r.q.v.m.k.U. X^.%X%X{.U.R.}.#X6X*X$X8XyXuXaX0X>XR.N.g.X.j f jXjXjXjXjX",
"jXjXjXjXjXjXjX% jX6 6 % & $ $ 3 & = A j { e.@.=.v.l./.{.K._.).G.P.L./.XX&X#X%X1XyXwXrX0X>XE.B.t.O.C d jXjXjXjXjX",
"jXjXjXjXjXjXjXjXjXjXjXjXjX.   o   . = s s h ^ ^ @.y.y.y.k.z.n.J.D.Q.L.%X&X&X5X8X9XqXqX7XXXY.v.s.6.^ jXjXjXjXjXjX",
"jXjXjXjXjXjXjXjXjXjXjXjXjXjXjXjXjXjXjXjX% . i n M [ ! ! e.3.8.f.A.F.+X*X;X;X5X6X7XqX7X&XoXQ.n.d.} u jXjXjXjXjXjX",
"jXjXjXjXjXjXjXjXjXjXjXjXjXjXjXjXjXjXjXjXjXX # 2 M  .! ;.<.<.4.8.h.P.R.$XXX#X=X$X6X3X`.XX).G.D.o.s u jXjXjXjXjXjX",
"jXjXjXjXjXjXjXjXjXjXjXjXjXjXjXjXjXjXjXjXjX+ # y L  .>.4.3.>.<.4.7.z.K.K.R.(./.+X'.T.E.L.G.C.o.f s jXjXjXjXjXjXjX",
"jXjXjXjXjXjXjXjXjXjXjXjXjXjXjXjXjXjXjXjXjXo $ w b R 3.8.3.,.Q ;.~ 1.u.N.C.B.B.L.K.W.C.S.N.o.0 4 jXjXjXjXjXjXjXjX",
"jXjXjXjXjXjXjXjXjXjXjXjXjXjXjXjXjXjXjXjXjXO ; r N K -.e.7.:. .,.E ~ :.u.f.d.C.A.N.u.t.g.o.s 4 jXjXjXjXjXjXjXjXjX",
"jXjXjXjXjXjXjXjXjXjXjXjXjXjXjXjXjXjXjXjXjXjX; : 2 S L @.2.o.} E N R E O.r.f.f.h.e.6.q._ s d jXjXjXjXjXjXjXjXjXjX",
"jXjXjXjXjXjXjXjXjXjXjXjXjXjXjXjXjXjXjXjXjXjXjXjX* jX( ( ` ` ^ f q q P { @.t.f.+. . .C u u jXjXjXjXjXjXjXjXjXjXjX",
"jXjXjXjXjXjXjXjXjXjXjXjXjXjXjXjXjXjXjXjXjXjXjXjXjXjXjXjXjXjXjXjX> jXjX_ ) ] o.j A f $ < jXjXjXjXjXjXjXjXjXjXjXjX",
"jXjXjXjXjXjXjXjXjXjXjXjXjXjXjXjXjXjXjXjXjXjXjXjXjXjXjXjXjXjXjXjXjXjXjXjXjXjXjXk jXjXO jXjXjXjXjXjXjXjXjXjXjXjXjX",
"jXjXjXjXjXjXjXjXjXjXjXjXjXjXjXjXjXjXjXjXjXjXjXjXjXjXjXjXjXjXjXjXjXjXjXjXjXjXjXjXjXjXjXjXjXjXjXjXjXjXjXjXjXjXjXjX",
"jXjXjXjXjXjXjXjXjXjXjXjXjXjXjXjXjXjXjXjXjXjXjXjXjXjXjXjXjXjXjXjXjXjXjXjXjXjXjXjXjXjXjXjXjXjXjXjXjXjXjXjXjXjXjXjX",
"jXjXjXjXjXjXjXjXjXjXjXjXjXjXjXjXjXjXjXjXjXjXjXjXjXjXjXjXjXjXjXjXjXjXjXjXjXjXjXjXjXjXjXjXjXjXjXjXjXjXjXjXjXjXjXjX",
"jXjXjXjXjXjXjXjXjXjXjXjXjXjXjXjXjXjXjXjXjXjXjXjXjXjXjXjXjXjXjXjXjXjXjXjXjXjXjXjXjXjXjXjXjXjXjXjXjXjXjXjXjXjXjXjX",
"jXjXjXjXjXjXjXjXjXjXjXjXjXjXjXjXjXjXjXjXjXjXjXjXjXjXjXjXjXjXjXjXjXjXjXjXjXjXjXjXjXjXjXjXjXjXjXjXjXjXjXjXjXjXjXjX",
"jXjXjXjXjXjXjXjXjXjXjXjXjXjXjXjXjXjXjXjXjXjXjXjXjXjXjXjXjXjXjXjXjXjXjXjXjXjXjXjXjXjXjXjXjXjXjXjXjXjXjXjXjXjXjXjX",
"jXjXjXjXjXjXjXjXjXjXjXjXjXjXjXjXjXjXjXjXjXjXjXjXjXjXjXjXjXjXjXjXjXjXjXjXjXjXjXjXjXjXjXjXjXjXjXjXjXjXjXjXjXjXjXjX",
"jXjXjXjXjXjXjXjXjXjXjXjXjXjXjXjXjXjXjXjXjXjXjXjXjXjXjXjXjXjXjXjXjXjXjXjXjXjXjXjXjXjXjXjXjXjXjXjXjXjXjXjXjXjXjXjX",
"jXjXjXjXjXjXjXjXjXjXjXjXjXjXjXjXjXjXjXjXjXjXjXjXjXjXjXjXjXjXjXjXjXjXjXjXjXjXjXjXjXjXjXjXjXjXjXjXjXjXjXjXjXjXjXjX",
"jXjXjXjXjXjXjXjXjXjXjXjXjXjXjXjXjXjXjXjXjXjXjXjXjXjXjXjXjXjXjXjXjXjXjXjXjXjXjXjXjXjXjXjXjXjXjXjXjXjXjXjXjXjXjXjX",
"jXjXjXjXjXjXjXjXjXjXjXjXjXjXjXjXjXjXjXjXjXjXjXjXjXjXjXjXjXjXjXjXjXjXjXjXjXjXjXjXjXjXjXjXjXjXjXjXjXjXjXjXjXjXjXjX",
"jXjXjXjXjXjXjXjXjXjXjXjXjXjXjXjXjXjXjXjXjXjXjXjXjXjXjXjXjXjXjXjXjXjXjXjXjXjXjXjXjXjXjXjXjXjXjXjXjXjXjXjXjXjXjXjX",
"jXjXjXjXjXjXjXjXjXjXjXjXjXjXjXjXjXjXjXjXjXjXjXjXjXjXjXjXjXjXjXjXjXjXjXjXjXjXjXjXjXjXjXjXjXjXjXjXjXjXjXjXjXjXjXjX",
"jXjXjXjXjXjXjXjXjXjXjXjXjXjXjXjXjXjXjXjXjXjXjXjXjXjXjXjXjXjXjXjXjXjXjXjXjXjXjXjXjXjXjXjXjXjXjXjXjXjXjXjXjXjXjXjX"
};
