/* XPM */
static char *result[] = {
/* columns rows colors chars-per-pixel */
"64 64 3 1 ",
"  c #00FF00",
". c #00FF00",
"X c #00FF00",
/* pixels */
"................................................................",
"................................................................",
"................................................................",
"................................................................",
"................................................................",
"................................................................",
".......................  ........................  ..  .........",
".......................  ........................  ..  .........",
".....................  ............................  ...........",
".....................  ............................  ...........",
".....................  .........................................",
".....................  .........................................",
".......  .......................................................",
".......  .......................................................",
".........  .....................................................",
".........  .....................................................",
".........  ........  ...........................................",
".........  ........  ...........................................",
".................  .............................................",
".................  .............................................",
".................  ..................  ..  .....................",
".................  ..................  ..  .....................",
".......................................  .......................",
".......................................  .......................",
"................................................................",
"................................................................",
"................................................................",
"................................................................",
"................................................................",
"................................................................",
"................................................................",
"................................................................",
"................................................................",
"................................................................",
"................................................................",
"................................................................",
"................................................................",
"................................................................",
".....................................................XX..XX.....",
".....................................................XX..XX.....",
".......................................................XX.......",
".......................................................XX.......",
".............XX.................................................",
".............XX.................................................",
"...........XX...................................................",
"...........XX...................................................",
".....XX....XX...................................................",
".....XX....XX...................................................",
".......XX..XX...................................................",
".......XX..XX...................................................",
".......XX..........XX...........................................",
".......XX..........XX...........................................",
".......XX............XX................XX..XX...................",
".......XX............XX................XX..XX...................",
".....................XX..................XX.....................",
".....................XX..................XX.....................",
".....................XX.........................................",
".....................XX.........................................",
"................................................................",
"................................................................",
"................................................................",
"................................................................",
"................................................................",
"................................................................"
};
