/* XPM */
static char *result[] = {
/* columns rows colors chars-per-pixel */
"64 64 3 1 ",
"  c #F0F000",
". c #F0F000",
"X c #F0F000",
/* pixels */
"................................................................",
"................................................................",
"................................................................",
"................................................................",
"................................................................",
"................................................................",
".......................  ........................  ..  .........",
".......................  ........................  ..  .........",
".....................  ............................  ...........",
".....................  ............................  ...........",
".....................  .........................................",
".....................  .........................................",
".......  .......................................................",
".......  .......................................................",
".........  .....................................................",
".........  .....................................................",
".........  ........  ...........................................",
".........  ........  ...........................................",
".................  .............................................",
".................  .............................................",
".................  ..................  ..  .....................",
".................  ..................  ..  .....................",
".......................................  .......................",
".......................................  .......................",
"................................................................",
"................................................................",
"................................................................",
"................................................................",
"................................................................",
"................................................................",
"................................................................",
"................................................................",
"................................................................",
"................................................................",
"................................................................",
"................................................................",
"................................................................",
"................................................................",
".....................................................XX..XX.....",
".....................................................XX..XX.....",
".......................................................XX.......",
".......................................................XX.......",
".............XX.................................................",
".............XX.................................................",
"...........XX...................................................",
"...........XX...................................................",
".....XX....XX...................................................",
".....XX....XX...................................................",
".......XX..XX...................................................",
".......XX..XX...................................................",
".......XX..........XX...........................................",
".......XX..........XX...........................................",
".......XX............XX................XX..XX...................",
".......XX............XX................XX..XX...................",
".....................XX..................XX.....................",
".....................XX..................XX.....................",
".....................XX.........................................",
".....................XX.........................................",
"................................................................",
"................................................................",
"................................................................",
"................................................................",
"................................................................",
"................................................................"
};
