/* XPM */
static char *result[] = {
/* columns rows colors chars-per-pixel */
"56 56 229 2 ",
"   c #020000",
".  c #0B0301",
"X  c #070800",
"o  c #130402",
"O  c #1D0402",
"+  c #120C02",
"@  c #1A0A05",
"#  c #1A1905",
"$  c #2C0A04",
"%  c #260603",
"&  c #3C0906",
"*  c #380906",
"=  c #2C1309",
"-  c #39140A",
";  c #4A0A07",
":  c #460B07",
">  c #560C09",
",  c #4C120B",
"<  c #44190A",
"1  c #5C120B",
"2  c #551909",
"3  c #59150D",
"4  c #5D1611",
"5  c #63130D",
"6  c #6D150E",
"7  c #6B1C0E",
"8  c #73150E",
"9  c #751B0F",
"0  c #691817",
"q  c #741A10",
"w  c #7B1D12",
"e  c #791611",
"r  c #600F09",
"t  c #48250F",
"y  c #452610",
"u  c #5B2310",
"i  c #592A12",
"p  c #5A3215",
"a  c #5A220F",
"s  c #6B2A15",
"d  c #682714",
"f  c #732414",
"g  c #762619",
"h  c #6C3518",
"j  c #7D331B",
"k  c #773519",
"l  c #7C451F",
"z  c #7C5123",
"x  c #821B13",
"c  c #8B1C14",
"v  c #841F1E",
"b  c #941E16",
"n  c #832916",
"m  c #8C2A18",
"M  c #892315",
"N  c #942316",
"B  c #9A2218",
"V  c #9A281A",
"C  c #84341B",
"Z  c #8C341C",
"A  c #853A1D",
"S  c #9D351E",
"D  c #973B1E",
"F  c #A4241A",
"G  c #A52C1D",
"H  c #A8241B",
"J  c #B3281E",
"K  c #AB351F",
"L  c #A3331E",
"P  c #9B3C20",
"I  c #933D23",
"U  c #8E2F23",
"Y  c #A33D22",
"T  c #AC3D21",
"R  c #B43522",
"E  c #B73A24",
"W  c #B72C20",
"Q  c #C33D26",
"!  c #CA3C29",
"~  c #C53A27",
"^  c #94471F",
"/  c #8D4322",
"(  c #8B4B23",
")  c #854922",
"_  c #934422",
"`  c #924C24",
"'  c #9D4923",
"]  c #965526",
"[  c #AC4524",
"{  c #AE4C29",
"}  c #A64926",
"|  c #B44226",
" . c #BC4326",
".. c #BD4B2A",
"X. c #B84928",
"o. c #A9562B",
"O. c #BD532C",
"+. c #BE5C2D",
"@. c #B4582C",
"#. c #96642B",
"$. c #956F2D",
"%. c #A8682C",
"&. c #BE682F",
"*. c #AA6830",
"=. c #B37032",
"-. c #C4462A",
";. c #CB432A",
":. c #C44E2B",
">. c #CD4C2C",
",. c #C04126",
"<. c #D64F2E",
"1. c #CB532E",
"2. c #C85A2E",
"3. c #D3522E",
"4. c #DB532F",
"5. c #CA5C31",
"6. c #CA5930",
"7. c #D35B31",
"8. c #DB5B33",
"9. c #D85431",
"0. c #E85736",
"q. c #CB6232",
"w. c #C46832",
"e. c #D46434",
"r. c #DD6B39",
"t. c #D86C38",
"y. c #C77835",
"u. c #D6763A",
"i. c #C16A2E",
"p. c #E36135",
"a. c #E56B39",
"s. c #E36737",
"d. c #E67B3E",
"f. c #E7753D",
"g. c #D77E40",
"h. c #E87B40",
"j. c #B18D36",
"k. c #C78839",
"l. c #D48C3A",
"z. c #D9863B",
"x. c #C8993C",
"c. c #D5923D",
"v. c #DB953D",
"b. c #DB9F3E",
"n. c #E4873E",
"m. c #D4A53E",
"M. c #C4A13F",
"N. c #D78B41",
"B. c #D39C41",
"V. c #DC9D41",
"C. c #D89341",
"Z. c #CC9F40",
"A. c #EB8442",
"S. c #E18D44",
"D. c #E98A44",
"F. c #EB9443",
"G. c #EC9B45",
"H. c #E69843",
"J. c #F09343",
"K. c #D4A443",
"L. c #DDAB43",
"P. c #DEA541",
"I. c #CCB548",
"U. c #DCB445",
"Y. c #DDBC42",
"T. c #D4BD4C",
"R. c #DDBC4B",
"E. c #D7B845",
"W. c #C4A241",
"Q. c #E6A845",
"!. c #F1A948",
"~. c #E4B549",
"^. c #ECB44A",
"/. c #E4BB49",
"(. c #E1BE47",
"). c #F3B54D",
"_. c #F2BB4A",
"`. c #DAC648",
"'. c #DECB51",
"]. c #DAC75A",
"[. c #E3C44B",
"{. c #EBC34B",
"}. c #E3CA4C",
"|. c #E8C94B",
" X c #F2C44F",
".X c #F4CE4F",
"XX c #ECD34C",
"oX c #F3D54D",
"OX c #E2CD5B",
"+X c #E4CA51",
"@X c #F4C950",
"#X c #EDD454",
"$X c #E9D658",
"%X c #F4D353",
"&X c #F6DC52",
"*X c #F3DB5C",
"=X c #F9DD5B",
"-X c #F8DA53",
";X c #F8E159",
":X c #DBC965",
">X c #EBD769",
",X c #F3DE6C",
"<X c #F5DC67",
"1X c #EEDC7C",
"2X c #EDDB76",
"3X c #F3DF70",
"4X c #E4CF60",
"5X c #F9E264",
"6X c #FBE469",
"7X c #F8E379",
"8X c #E8D786",
"9X c #F1DE83",
"0X c #F9E481",
"qX c #F7E68A",
"wX c #EFE19C",
"eX c #FBEB9C",
"rX c #F7E795",
"tX c #EEE08E",
"yX c #EEE2A1",
"uX c #EEE4AA",
"iX c #FBEDA4",
"pX c #FBEEAB",
"aX c #F3E7A4",
"sX c #FCF0AC",
"dX c #FCF0A5",
"fX c #F9EDB1",
"gX c #FCF1B4",
"hX c #FCF2BA",
"jX c None",
/* pixels */
"jXjXjXjXjXjXjXjXjXjXjXjXjXjXjXjXjXjXjXjXjXjXjXjXjXjXjXjXjXjXjXjXjXjXjXjXjXjXjXjXjXjXjXjXjXjXjXjXjXjXjXjXjXjXjXjX",
"jXjXjXjXjXjXjXjXjXjXjXjXjXjXjXjXjXjXjXjXjXjXjXjXjXjXjXjXjXjXjXjXjXjXjXjXjXjXjXjXjXjXjXjXjXjXjXjXjXjXjXjXjXjXjXjX",
"jXjXjXjXjXjXjXjXjXjXjXjXjXjXjXjXjXjXjXjXjXjXjXjXjXjX  jXjXjXjXjXjXjXjXjXjXjXjXjXjXjXjXjXjXjXjXjXjXjXjXjXjXjXjXjX",
"jXjXjXjXjXjXjXjXjXjXjXjXjXjXjXjXjXjXjXjXjXjXjXjXjXjX  jXjXjXjXjXjXjXjXjXjXjXjXjXjXjXjXjXjXjXjXjXjXjXjXjXjXjXjXjX",
"jXjXjXjXjXjXjXjXjXjXjXjXjXjXjXjXjXjXjXjXjXjXjXjXjXjXjXjXjXjXjXjXjXjXjXjXjXjXjXjXjXjXjXjXjXjXjXjXjXjXjXjXjXjXjXjX",
"jXjXjXjXjXjXjXjXjXjXjXjXjXjXjXjXjXjXjXjXjXjXjXjXjXjXjXjXjX  . jXjXjXjXjXjXjXjXjXjXjXjXjXjXjXjXjXjXjXjXjXjXjXjXjX",
"jXjXjXjXjXjXjXjXjXjXjXjXjXjXjXjXjXjXjXjXjXjXjXjXjX% jXjXjX  o o jXjXjXjXjXjXjXjXjXjXjXjXjXjXjXjXjXjXjXjXjXjXjXjX",
"jXjXjXjXjXjXjXjXjXjXjXjXjXjXjXjXjXjXjXjXjXjXjXjX% & x jXjXo O O jXjXjXjXjXjXjXjXjXjXjXjXjXjXjXjXjXjXjXjXjXjXjXjX",
"jXjXjXjXjXjXjXjXjXjXjXjXjXjXjXjXjXjXjXjXjXjXjXjXjXx H B O   o jXjXjXjXjXjXjXjXjXjXjXjXjXjXjXjXjXjXjXjXjXjXjXjXjX",
"jXjXjXjXjXjXjXjXjXjXjXjXjXjXjXjXjXjXjXjXjXjXjXjX6 x B b 5 @ jXjXjXjXjXjXjXjXjXjXjXjXjXjXjXjXjXjXjXjXjXjXjXjXjXjX",
"jXjXjXjXjXjXjXjXjXjXjXjXjXjXjXjXjXjXjXjXjXjXjXjX6 w b b g u i jXjXjXjXjXjXjXjXjXjXjXjXjXjXjXjXjXjXjXjXjXjXjXjXjX",
"jXjXjXjXjXjXjXjXjXjXjXjXjXjXjXjXjXjXjXjXjXjXjXjX% c J b d i h jXjXjX% = jXjXjXjXjXjXjXjXjXjXjXjXjXjXjXjXjXjXjXjX",
"jXjXjXjXjXjXjXjXjXjXjXjXjXjXjXjXjXjXjXjXjXjXjXjX& > b c w k +.w.y   o jXjXjXjXjXjXjXjXjXjXjXjXjXjXjXjXjXjXjXjXjX",
"jXjXjXjXjXjXjXjXjXjXjXjXjXjXjXjXjXjXjXjXjXjXjX. $ 1 B c w h o.+.j X   jXjXjXjXjXjXjXjXjXjXjXjXjXjXjXjXjXjXjXjXjX",
"jXjXjXjXjXjXjXjXjXjXjXjXjXjXjXjXjXjXjXjXjXjXjX  $ x F B d p ( { D 4 jXjXjXjXjXjXjXjXjXjXjXjXjXjXjXjXjXjXjXjXjXjX",
"jXjXjXjXjXjXjXjXjXjXjXjXjXjXjXjXjXjXjXjXjXjXjXo 1 8 c e 5 k { [ n ; : jXjXjX& % jXjXjXjXjXjXjXjXjXjXjXjXjXjXjXjX",
"jXjXjXjXjXjXjXjXjXjXjXjXjXjXjXjXjXjXjXjXjXjXjX. & q F c * O Z T M r > 8 H B 6 jXjXjXjXjXjXjXjXjXjXjXjXjXjXjXjXjX",
"jXjXjXjXjXjXjXjXjXjXjXjXjXjXjXjXjXjXjXjXjXjXjXX = S F 8 $ o , b B M 9 e F B w jXjXjXjXjXjXjXjXjXjXjXjXjXjXjXjXjX",
"jXjXjXjXjXjXjXjXjXjXjXjXjXjXjXjXjXjXjXjXjXjXjX= j ' S 1 & * 8 c L D m F J H , $ jXjXjXjXjXjXjXjXjXjXjXjXjXjXjXjX",
"jXjXjXjXjXjXjXjXjXjXjXjXjXjXjXjXjXjXjXjXjXjXjXs j +.q.Z $ o , R Q S n M H H c jXjXjXjXjXjXjXjXjXjXjXjXjXjXjXjXjX",
"jXjXjXjXjXjXjXjXjXjXjXjXjXjXjXjXjXjXjXjXjXjX% s { r.q./ = @ A ..Q E n n L G 8 * jXjXjXjXjXjXjXjXjXjXjXjXjXjXjXjX",
"jXjXjXjXjXjXjXjXjXjXjXjXjXjXjXjXjXjXO o + X X k e.r.+.p y d } ..:.| K ^ T S 5 O jXjXjXjXjXjXjXjXjXjXjXjXjXjXjXjX",
"jXjXjXjXjXjXjXjXjXjXjXjXjXjXjXjXjX; ; $ # # a ^ @.q.o.A y y / 8.p.:./ / [ K Z , jXjXjXjXjXjXjXjXjXjXjXjXjXjXjXjX",
"jXjXjXjXjXjXjXjXjXjXjXjXjXjXjXjXjX: r w y 2 g ' =.c.' = X p } 8.8.E D } +.} m 8 jXjXjXjXjXjXjXjXjXjXjXjXjXjXjXjX",
"jXjXjXjXjXjXjXjXjXjXjXjXjXjXjXjX* 3 N N V M M @.b.m.] + - _ ..:.,.K G | 2. .c 9 2 jXjXjXjXjXjXjXjXjXjXjXjXjXjXjX",
"jXjXjXjXjXjXjXjXjXjXjXjXjXjXjXjXjXS L E .. .[ w.l.k.o.^ ^ ..5.3.;.E F G X.~ J 9 2 , jXjXjXjXjXjXjXjXjXjXjXjXjXjX",
"jXjXjXjXjXjXjXjXjXjXjXjXjXjXjXjX( } -.4.>.Q ! y.^.Y.i.R W 5.n.n.1.,.R { i.:.J H 7 jXjXjXjXjXjXjXjXjXjXjXjXjXjXjX",
"jXjXjXjXjXjXjXjXjXjXjXjXjXjXjXjX( @.7.4.4.;.! k.[.{.n.>.;.d.!.H.z.1...+.y.z.7.W m < jXjXjXjXjXjXjXjXjXjXjXjXjXjX",
"jXjXjXjXjXjXjXjXjXjXjXjXjXjXjXjX( q.5.3.9.9.5.l.m.^.G.A.d.A.G.H.v.q...2.v.F.A.| Z s jXjXjXjXjXjXjXjXjXjXjXjXjXjX",
"jXjXjXjXjXjXjXjXjXjXjXjXjXjXjXjX` } :.,.;.<.9.u.{.%X!.F.J.!._.^.u.;.-.l.Q.H.r.>.Y -   jXjXjXjXjXjXjXjXjXjXjXjXjX",
"jXjXjXjXjXjXjXjXjXjXjXjXjXjXjXjX^ [ ,.Q 9.4.8.D.).%X%X!._.@X X@X).1.O.w.P.F.h.<.[ g o jXjXjXjXjXjXjXjXjXjXjXjXjX",
"jXjXjXjXjXjXjXjXjXjXjXjXjXjXjXjXf E Q ;.9.p.h.D.G._.%X|..X&X-X-X%Xm.+.&.k.F.A.7.| ' jXjXjXjXjXjXjXjXjXjXjXjXjXjX",
"jXjXjXjXjXjXjXjXjXjXjXjXjXjXjX> 8 N E ! 7.d.A.D.L.U.[.Y.`.*X=X&X|.Y.m.j.j.N.h.0.>.( l jXjXjXjXjXjXjXjXjXjXjXjXjX",
"jXjXjXjXjXjXjXjXjXjXjXjXjXjXjXjX8 R ~ 6.l.V.S.Q.L.R.'.'.4X2X<X=X%X[.R.I.M.x.k.r.r.@.jXjXjXjXjXjXjXjXjXjXjXjXjXjX",
"jXjXjXjXjXjXjXjXjXjXjXjXjXjXjXjXP  .1.y.K.U.+X~.(.'.].1XtX0XeX7X<X9X:XT.I.W.x.N.g.o.jXjXjXjXjXjXjXjXjXjXjXjXjXjX",
"jXjXjXjXjXjXjXjXjXjXjXjXjXjXjX_ [ O.u.N.K.$X*X%X|.#X1XiXiXpXsXsXeXpXtX:X`.T.K.Z.y.A p jXjXjXjXjXjXjXjXjXjXjXjXjX",
"jXjXjXjXjXjXjXjXjXjXjXjXjXjXjXl @.r.h.C.`.}.&X&X&X6XeXdXgXhXgXgXgXiXyX8X:X+X}.c.y.*.jXjXjXjXjXjXjXjXjXjXjXjXjXjX",
"jXjXjXjXjXjXjXjXjXjXjXjXjXjXjX] e.h.f.C.[.$X;X;X%X*XrXhXhXhXsXgXhXgXuX8XT.'.#X^.g.` jXjXjXjXjXjXjXjXjXjXjXjXjXjX",
"jXjXjXjXjXjXjXjXjXjXjXjXjXjXjX@.f.d.v.V.(.%X5X6X#X*XtXhXhXgXsXsXgXhXpXT.M.`.oX Xj.2 jXjXjXjXjXjXjXjXjXjXjXjXjXjX",
"jXjXjXjXjXjXjXjXjXjXjXjXjXjXk j +.h.A.U.+X$X6X0X1X8XwXaXsXsXdXsXpXpXrX8X'.&XoXK.*.` jXjXjXjXjXjXjXjXjXjXjXjXjXjX",
"jXjXjXjXjXjXjXjXjXjXjXjXjXjXjXA  .e.N.K.'.,X0XqXyXyXwXgXgXsXeXiXsXdXwX>X+X#X}.W.*.jXjXjXjXjXjXjXjXjXjXjXjXjXjXjX",
"jXjXjXjXjXjXjXjXjXjXjXjXjXjXjXf | 6.z.Z.E.2X0XqXyXuXfXgXgXgXeXeXeXiX0X*X'.[.U.W.jXjXjXjXjXjXjXjXjXjXjXjXjXjXjXjX",
"jXjXjXjXjXjXjXjXjXjXjXjXjXjX% $ C q.t.N.m.`.7XqXqXiXgXgXhXhXsXeXrX0X6X<X#X XR.z jXjXjXjXjXjXjXjXjXjXjXjXjXjXjXjX",
"jXjXjXjXjXjXjXjXjXjXjXjXjXjXjX- 4 _ g.S.~.XX&X7X0X0XeXeXeXgXsXeX7X5X;X-X-X{.*.( jXjXjXjXjXjXjXjXjXjXjXjXjXjXjXjX",
"jXjXjXjXjXjXjXjXjXjXjXjXjXjXjXjXu s o.N.G._.oX|.>X2XOX0XqX2XeX0X6X;X%X@X+Xj.#.) jXjXjXjXjXjXjXjXjXjXjXjXjXjXjXjX",
"jXjXjXjXjXjXjXjXjXjXjXjXjXjXjXjXjXd h o.n.G.Q.(.U.R.`.T.].4XOX<X;X X_.^.*.$.$.jXjXjXjXjXjXjXjXjXjXjXjXjXjXjXjXjX",
"jXjXjXjXjXjXjXjXjXjXjXjXjXjXjXjXjXjX4 0 o.N.D.H.C.c.m.x.b.T.[.|.~.H.v.[ U ( jXjXjXjXjXjXjXjXjXjXjXjXjXjXjXjXjXjX",
"jXjXjXjXjXjXjXjXjXjXjXjXjXjXjXjXjXjXjX5 f o.u.e.u.u.n.c.v.V.L.j.=.N.' g v jXjXjXjXjXjXjXjXjXjXjXjXjXjXjXjXjXjXjX",
"jXjXjXjXjXjXjXjXjXjXjXjXjXjXjXjXjXjXjXjXs s } 6.O.@.a.f.D.S.k.$.$.jXg 0 jXjXjXjXjXjXjXjXjXjXjXjXjXjXjXjXjXjXjXjX",
"jXjXjXjXjXjXjXjXjXjXjXjXjXjXjXjXjXjXjXjXjXu a D C j { p.s.y.=.*.jXjXjXjXjXjXjXjXjXjXjXjXjXjXjXjXjXjXjXjXjXjXjXjX",
"jXjXjXjXjXjXjXjXjXjXjXjXjXjXjXjXjXjXjXjXjXjXjXjXd s s } O./ #.jXjXjXjXjXjXjXjXjXjXjXjXjXjXjXjXjXjXjXjXjXjXjXjXjX",
"jXjXjXjXjXjXjXjXjXjXjXjXjXjXjXjXjXjXjXjXjXjXjXjXjXjXd jXjXj jXjXjXjXjXjXjXjXjXjXjXjXjXjXjXjXjXjXjXjXjXjXjXjXjXjX",
"jXjXjXjXjXjXjXjXjXjXjXjXjXjXjXjXjXjXjXjXjXjXjXjXjXjXjXjXjXjXjXjXjXjXjXjXjXjXjXjXjXjXjXjXjXjXjXjXjXjXjXjXjXjXjXjX",
"jXjXjXjXjXjXjXjXjXjXjXjXjXjXjXjXjXjXjXjXjXjXjXjXjXjXjXjXjXjXjXjXjXjXjXjXjXjXjXjXjXjXjXjXjXjXjXjXjXjXjXjXjXjXjXjX",
"jXjXjXjXjXjXjXjXjXjXjXjXjXjXjXjXjXjXjXjXjXjXjXjXjXjXjXjXjXjXjXjXjXjXjXjXjXjXjXjXjXjXjXjXjXjXjXjXjXjXjXjXjXjXjXjX",
"jXjXjXjXjXjXjXjXjXjXjXjXjXjXjXjXjXjXjXjXjXjXjXjXjXjXjXjXjXjXjXjXjXjXjXjXjXjXjXjXjXjXjXjXjXjXjXjXjXjXjXjXjXjXjXjX"
};
