/* XPM */
static char *result[] = {
/* columns rows colors chars-per-pixel */
"64 64 3 1 ",
"  c #0000FF",
". c #0000FF",
"X c #0000FF",
/* pixels */
"................................................................",
"................................................................",
"................................................................",
"................................................................",
"................................................................",
"................................................................",
".......................  ........................  ..  .........",
".......................  ........................  ..  .........",
".....................  ............................  ...........",
".....................  ............................  ...........",
".....................  .........................................",
".....................  .........................................",
".......  .......................................................",
".......  .......................................................",
".........  .....................................................",
".........  .....................................................",
".........  ........  ...........................................",
".........  ........  ...........................................",
".................  .............................................",
".................  .............................................",
".................  ..................  ..  .....................",
".................  ..................  ..  .....................",
".......................................  .......................",
".......................................  .......................",
"................................................................",
"................................................................",
"................................................................",
"................................................................",
"................................................................",
"................................................................",
"................................................................",
"................................................................",
"................................................................",
"................................................................",
"................................................................",
"................................................................",
"................................................................",
"................................................................",
".....................................................XX..XX.....",
".....................................................XX..XX.....",
".......................................................XX.......",
".......................................................XX.......",
".............XX.................................................",
".............XX.................................................",
"...........XX...................................................",
"...........XX...................................................",
".....XX....XX...................................................",
".....XX....XX...................................................",
".......XX..XX...................................................",
".......XX..XX...................................................",
".......XX..........XX...........................................",
".......XX..........XX...........................................",
".......XX............XX................XX..XX...................",
".......XX............XX................XX..XX...................",
".....................XX..................XX.....................",
".....................XX..................XX.....................",
".....................XX.........................................",
".....................XX.........................................",
"................................................................",
"................................................................",
"................................................................",
"................................................................",
"................................................................",
"................................................................"
};
