/* XPM */
static char *result[] = {
/* columns rows colors chars-per-pixel */
"64 64 3 1 ",
"  c #FF0000",
". c #FF0000",
"X c #FF0000",
/* pixels */
"................................................................",
"................................................................",
"................................................................",
"................................................................",
"................................................................",
"................................................................",
".......................  ........................  ..  .........",
".......................  ........................  ..  .........",
".....................  ............................  ...........",
".....................  ............................  ...........",
".....................  .........................................",
".....................  .........................................",
".......  .......................................................",
".......  .......................................................",
".........  .....................................................",
".........  .....................................................",
".........  ........  ...........................................",
".........  ........  ...........................................",
".................  .............................................",
".................  .............................................",
".................  ..................  ..  .....................",
".................  ..................  ..  .....................",
".......................................  .......................",
".......................................  .......................",
"................................................................",
"................................................................",
"................................................................",
"................................................................",
"................................................................",
"................................................................",
"................................................................",
"................................................................",
"................................................................",
"................................................................",
"................................................................",
"................................................................",
"................................................................",
"................................................................",
".....................................................XX..XX.....",
".....................................................XX..XX.....",
".......................................................XX.......",
".......................................................XX.......",
".............XX.................................................",
".............XX.................................................",
"...........XX...................................................",
"...........XX...................................................",
".....XX....XX...................................................",
".....XX....XX...................................................",
".......XX..XX...................................................",
".......XX..XX...................................................",
".......XX..........XX...........................................",
".......XX..........XX...........................................",
".......XX............XX................XX..XX...................",
".......XX............XX................XX..XX...................",
".....................XX..................XX.....................",
".....................XX..................XX.....................",
".....................XX.........................................",
".....................XX.........................................",
"................................................................",
"................................................................",
"................................................................",
"................................................................",
"................................................................",
"................................................................"
};
